<svg width="460" height="92" viewBox="0 0 460 92" fill="none" xmlns="http://www.w3.org/2000/svg">
<path d="M167.937 13.6116C168.581 13.6116 169.133 13.0598 169.133 12.416V1.47152C169.133 0.827728 168.581 0.275907 167.937 0.275907H132.989C132.345 0.275907 131.793 0.827728 131.793 1.47152V12.416C131.793 13.0598 132.345 13.6116 132.989 13.6116H143.106V54.2624C143.106 54.9062 143.657 55.458 144.301 55.458H156.533C157.177 55.458 157.729 54.9062 157.729 54.2624V13.6116H167.937ZM210.06 13.6116C210.704 13.6116 211.255 13.0598 211.255 12.416V1.47152C211.255 0.827728 210.704 0.275907 210.06 0.275907H175.111C174.467 0.275907 173.916 0.827728 173.916 1.47152V12.416C173.916 13.0598 174.467 13.6116 175.111 13.6116H185.228V54.2624C185.228 54.9062 185.78 55.458 186.423 55.458H198.747C199.391 55.458 199.943 54.9062 199.943 54.2624V13.6116H210.06ZM417.636 0.275907H405.312C404.669 0.275907 404.117 0.827728 404.025 1.47152V32.6494C404.025 38.0756 399.61 42.3982 394.276 42.3982H393.816C388.574 42.0303 384.527 37.6158 384.619 32.3735V1.47152C384.619 0.827728 384.067 0.275907 383.423 0.275907H371.191C370.548 0.275907 369.996 0.827728 369.996 1.47152V31.4538C369.996 44.7895 380.48 56.0098 393.908 56.3777C407.428 56.6536 418.648 45.8931 418.832 32.3735V1.47152C418.832 0.827728 418.372 0.275907 417.636 0.275907ZM458.747 42.1223H442.928V1.47152C442.928 0.827728 442.376 0.275907 441.733 0.275907H429.409C428.765 0.275907 428.213 0.827728 428.213 1.47152V51.7792C428.213 53.8025 429.868 55.458 431.892 55.458H458.747C459.391 55.458 459.943 54.9062 459.943 54.2624V43.3179C459.943 42.6741 459.391 42.1223 458.747 42.1223ZM311.687 35.6844C320.884 30.902 324.471 19.5896 319.688 10.3926C316.469 4.23062 310.123 0.367877 303.226 0.275907H280.509C279.681 0.275907 278.945 0.919698 278.945 1.74743V54.2624C278.945 54.9062 279.497 55.458 280.141 55.458H292.465C293.109 55.458 293.661 54.9062 293.661 54.2624V37.7078H295.132L306.628 54.4463C307.18 55.1821 308.008 55.6419 308.928 55.6419H322.815C323.643 55.6419 324.287 54.9981 324.195 54.1704C324.195 53.8945 324.103 53.6186 323.919 53.3427L311.687 35.6844ZM308.468 18.9458C308.56 21.8889 306.169 24.2801 303.318 24.2801H293.845V13.6116H303.318C306.169 13.7035 308.468 16.0948 308.468 18.9458ZM245.192 -3.44962e-06C231.213 -0.643794 218.889 9.19701 216.314 22.9006C213.095 40.5588 226.43 55.9178 243.997 55.9178C250.067 55.9178 255.953 53.9865 260.827 50.3996C261.379 50.0317 261.471 49.296 261.195 48.8361C261.103 48.7442 261.103 48.6522 261.011 48.5602L252.918 41.2026C252.642 40.9267 252.09 40.8347 251.722 41.1106C249.515 42.3982 247.032 43.134 244.457 43.134C238.019 43.134 232.409 38.9034 231.121 33.5691H270.576C271.404 33.5691 272.048 32.9253 272.048 32.0976V27.4991C271.588 14.5313 262.023 0.643787 245.192 -3.44962e-06ZM231.489 21.7969C233.972 16.7386 238.571 13.0598 244.641 13.0598C250.251 12.8758 255.309 16.4627 256.873 21.7969H231.489ZM59.1368 1.10364L31.2698 25.9356L3.40289 1.10364C2.57516 0.367877 1.28758 0.367877 0.551821 1.19561C0.18394 1.65546 0 2.11531 0 2.57516V53.8025C0 54.7222 0.735761 55.458 1.65546 55.458H13.0598C13.9795 55.458 14.7152 54.7222 14.7152 53.8025V30.81L29.4304 43.9617C30.4421 44.8814 32.0056 44.8814 33.0173 43.9617L47.7325 30.902V53.8945C47.7325 54.8142 48.4683 55.55 49.388 55.55H60.7923C61.712 55.55 62.4477 54.8142 62.4477 53.8945V2.57516C62.4477 1.47152 61.528 0.551817 60.4244 0.551817C59.9645 0.551817 59.5047 0.735758 59.1368 1.10364ZM125.263 54.1704V1.93137C125.263 1.01167 124.528 0.275907 123.608 0.275907H112.479C111.56 0.275907 110.824 1.01167 110.824 1.93137V4.50653C106.685 2.11531 101.995 0.827728 97.2124 0.827728C82.0374 1.10364 69.9893 13.6116 70.2652 28.8786C70.5411 43.6858 82.4972 55.6419 97.3044 55.9178C102.087 55.9178 106.777 54.6303 110.916 52.239V54.2624C110.916 55.1821 111.652 55.9178 112.571 55.9178H123.7C124.528 55.8259 125.263 55.0901 125.263 54.1704ZM97.6723 41.1106C90.5906 41.1106 84.8884 35.4085 84.8884 28.3268C84.8884 21.2451 90.5906 15.5429 97.6723 15.5429C104.754 15.5429 110.456 21.2451 110.456 28.3268C110.456 35.4085 104.754 41.1106 97.6723 41.1106ZM359.419 36.5121C360.063 36.5121 360.615 35.9603 360.615 35.3165V24.2801C360.615 23.6363 360.063 23.0845 359.419 23.0845H345.348V13.6116H361.075C361.719 13.6116 362.27 13.0598 362.27 12.416V1.47152C362.27 0.827728 361.719 0.275907 361.075 0.275907H332.196C331.368 0.275907 330.633 0.919698 330.633 1.74743V53.9865C330.633 54.8142 331.276 55.55 332.196 55.55H343.876C344.704 55.55 345.44 54.9062 345.44 53.9865V36.5121H359.419ZM127.103 81.6695L127.195 81.5775C127.471 81.2096 127.747 80.7498 127.93 80.2899C128.114 79.8301 128.206 79.3702 128.206 78.8184C128.206 77.7148 127.838 76.7031 127.195 75.8754C126.919 75.5075 126.551 75.1396 126.183 74.7717C125.355 74.2199 124.344 73.852 123.332 73.852H116.618V90.7745H123.792C124.344 90.7745 124.895 90.6826 125.355 90.4986C127.563 89.8548 129.034 87.8315 129.034 85.6242C129.034 84.5205 128.666 83.4169 128.022 82.5892C127.747 82.2213 127.379 81.9454 127.103 81.6695ZM119.837 76.887H123.332C123.516 76.887 123.792 76.979 123.976 77.071C124.16 77.1629 124.344 77.3469 124.528 77.5308C124.803 77.8987 124.987 78.3585 124.987 78.8184C124.987 79.1863 124.803 79.5542 124.62 79.8301L124.16 80.2899C123.976 80.3819 123.792 80.4739 123.608 80.4739H119.929L119.837 76.887ZM125.079 87.2797C124.712 87.6475 124.252 87.8315 123.7 87.8315H119.837V83.5089H123.608C123.884 83.5089 124.16 83.5089 124.436 83.6008C124.712 83.6928 124.895 83.8768 125.079 84.0607C125.263 84.2446 125.447 84.5205 125.539 84.7965C125.907 85.6242 125.631 86.6359 125.079 87.2797ZM174.191 82.7731C174.559 82.3133 174.835 81.7614 175.019 81.2096C175.203 80.6578 175.295 80.106 175.295 79.5542C175.295 78.9104 175.203 78.2666 175.019 77.7148C174.835 77.1629 174.559 76.6111 174.191 76.1513C173.824 75.6914 173.456 75.2316 172.904 74.9557C172.444 74.5878 171.892 74.3119 171.34 74.2199C170.789 74.036 170.237 73.944 169.593 73.944H161.867V90.8665H165.086V85.1643H169.133L171.892 90.8665H175.479L172.352 84.4286C173.088 83.9687 173.732 83.4169 174.191 82.7731ZM171.616 81.0257C171.34 81.3016 171.064 81.5775 170.697 81.7614C170.421 81.9454 170.053 82.0374 169.685 82.0374H165.178V76.887H169.685C170.053 76.887 170.329 76.979 170.697 77.1629C171.064 77.3469 171.34 77.5308 171.524 77.8067C171.984 78.2666 172.168 78.9104 172.168 79.5542C172.076 80.106 171.892 80.6578 171.616 81.0257ZM213.003 73.944L207.853 90.7745H211.163L211.991 88.1074H218.889L219.717 90.7745H223.028L217.877 73.852H213.003V73.944ZM212.819 85.1643L215.302 76.887L217.877 85.1643H212.819ZM266.07 85.1643L258.712 73.944H255.493V90.7745H258.712V79.5542L266.07 90.7745H269.289V73.944H266.07V85.1643ZM314.63 76.1513C313.986 75.4155 313.158 74.8637 312.239 74.4958C311.227 74.1279 310.123 73.944 309.02 73.944H303.042V90.8665H309.02C310.123 90.8665 311.227 90.6825 312.239 90.3147C313.25 89.9468 314.078 89.395 314.814 88.5672C315.55 87.7395 316.101 86.8198 316.469 85.8081C316.837 84.7045 317.021 83.6008 317.021 82.4052C317.021 81.2096 316.837 80.106 316.469 79.0023C315.917 77.8987 315.366 76.979 314.63 76.1513ZM313.158 84.6125C312.974 85.2563 312.606 85.9001 312.147 86.4519C311.319 87.2797 310.123 87.8315 308.928 87.7395H306.261V76.979H309.02C309.663 76.979 310.307 77.1629 310.859 77.3469C311.411 77.5308 311.871 77.8987 312.239 78.3586C313.158 79.5542 313.526 81.0257 313.526 82.4052C313.526 83.141 313.434 83.9687 313.158 84.6125ZM361.443 82.5892C361.075 82.2213 360.615 81.9454 360.155 81.6695C359.603 81.3936 358.959 81.1177 358.316 80.9337L355.373 80.106C354.637 79.922 353.993 79.6461 353.441 79.1863C353.257 79.0023 353.073 78.7264 353.073 78.3586C353.073 78.0826 353.165 77.8067 353.257 77.6228C353.441 77.3469 353.625 77.1629 353.901 76.979C354.453 76.6111 355.097 76.5191 355.832 76.5191C356.568 76.5191 357.304 76.7031 357.948 77.1629C358.316 77.3469 358.592 77.6228 358.867 77.8987C359.143 78.2666 359.327 78.6345 359.511 79.0023L362.73 78.1746C362.454 77.3469 361.994 76.6111 361.443 75.8754C360.891 75.2316 360.247 74.6797 359.511 74.3119C358.408 73.76 357.212 73.4841 355.924 73.4841C355.281 73.4841 354.729 73.5761 354.085 73.6681C353.533 73.76 352.889 73.944 352.338 74.2199C351.51 74.5878 350.866 75.1396 350.406 75.8754C349.854 76.6111 349.67 77.4388 349.67 78.3586C349.67 79.0023 349.762 79.6461 350.038 80.198C350.314 80.7498 350.682 81.3016 351.142 81.6695C352.062 82.4052 353.165 82.9571 354.361 83.233L357.488 84.1527C358.04 84.3366 358.592 84.5206 358.959 84.8884C359.327 85.1643 359.511 85.6242 359.511 86.084C359.511 86.6359 359.235 87.1877 358.867 87.4636C358.5 87.7395 358.132 87.9234 357.672 88.0154C357.212 88.1074 356.752 88.1994 356.2 88.1994C355.557 88.1994 355.005 88.1074 354.453 87.8315C353.901 87.6475 353.441 87.2797 353.073 86.8198C352.613 86.176 352.338 85.5322 352.246 84.7045L349.027 85.6242C349.303 86.8198 349.762 87.9234 350.59 88.9351C351.234 89.7628 352.062 90.3147 352.981 90.6825C353.993 91.0504 355.097 91.2344 356.2 91.2344C357.028 91.2344 357.948 91.1424 358.776 90.9585C359.511 90.7745 360.155 90.4986 360.799 90.1307C361.443 89.6709 361.994 89.1191 362.362 88.3833C362.73 87.7395 362.914 87.0037 362.914 86.176C362.914 85.5322 362.822 84.8884 362.546 84.2446C362.454 83.6928 361.994 83.049 361.443 82.5892Z" fill="#231F20"/>
</svg>
